<svg xmlns="http://www.w3.org/2000/svg" width="21.921" height="21.921" viewBox="0 0 21.921 21.921"><defs><style>.a{fill:#fff;}</style></defs><g transform="translate(-453.239 -14.84)"><path class="a" d="M10.963,0h-.005A10.954,10.954,0,0,0,2.087,17.385L.721,21.456,4.934,20.11A10.959,10.959,0,1,0,10.963,0Z" transform="translate(453.239 14.84)"/><path d="M120.012,127.553a3.093,3.093,0,0,1-2.151,1.547c-.573.122-1.321.219-3.839-.825a13.731,13.731,0,0,1-5.457-4.82,6.26,6.26,0,0,1-1.3-3.306,3.5,3.5,0,0,1,1.121-2.668,1.592,1.592,0,0,1,1.121-.393c.136,0,.258.007.367.012.322.014.484.033.7.541.264.637.908,2.21.985,2.372a.652.652,0,0,1,.047.593,1.894,1.894,0,0,1-.355.5c-.162.186-.315.329-.477.529-.148.174-.315.36-.129.682a9.728,9.728,0,0,0,1.778,2.21,8.058,8.058,0,0,0,2.57,1.585.693.693,0,0,0,.773-.122,13.26,13.26,0,0,0,.856-1.134.612.612,0,0,1,.786-.238c.3.1,1.862.877,2.184,1.037s.534.238.612.374A2.73,2.73,0,0,1,120.012,127.553Z" transform="translate(350.567 -97.235)"/></g></svg>