<?xml version="1.0" encoding="UTF-8"?>
<svg width="33px" height="29px" viewBox="0 0 33 29" version="1.1" xmlns="http://www.w3.org/2000/svg" xmlns:xlink="http://www.w3.org/1999/xlink">
    <!-- Generator: Sketch 58 (84663) - https://sketch.com -->
    <title>header-wish-list</title>
    <desc>Created with Sketch.</desc>
    <g id="Page-1" stroke="none" stroke-width="1" fill="none" fill-rule="evenodd">
        <g id="header-wish-list" transform="translate(-1.000000, 0.000000)" fill="#000000" fill-rule="nonzero">
            <path d="M24.77,-0.000274974638 C22.0262968,0.038290936 19.4827706,1.44360793 17.99,3.746 C17.694647,4.16428812 17.4254657,4.60045525 17.184,5.052 C16.9425565,4.60044249 16.6733744,4.16427401 16.378,3.746 C14.9902264,1.58551394 12.66562,0.205177514 10.1044442,0.0208027661 C7.54326838,-0.163571981 5.04491978,0.869568002 3.362,2.809 C1.80791318,4.62156066 0.968122983,6.93862784 1,9.326 C1,12.019 2.051,14.526 4.309,17.209 C6.86685631,19.9971902 9.63571565,22.584178 12.591,24.947 C13.844,26.014 15.139,27.118 16.518,28.325 L16.559,28.361 C16.9164972,28.6740204 17.4505028,28.6740204 17.808,28.361 L17.849,28.325 C19.228,27.118 20.523,26.015 21.776,24.947 C24.7313103,22.584208 27.5001719,19.9972181 30.058,17.209 C32.316,14.524 33.367,12.019 33.367,9.326 C33.398877,6.93862784 32.5590868,4.62156066 31.005,2.809 C29.4349038,1.00935976 27.1582295,-0.0163303966 24.77,-0.000274974638 Z" id="Path"></path>
            <path d="M20.353,22.964 C19.336,23.831 18.288,24.723 17.184,25.683 C16.084,24.723 15.033,23.831 14.015,22.964 C7.815,17.681 3.72,14.191 3.72,9.603 C3.69060415,7.7885511 4.32341449,6.02556993 5.5,4.644 C6.64250022,3.33527176 8.29878271,2.58965252 10.036,2.60184904 C12.038993,2.64989202 13.8871436,3.69034347 14.967,5.378 C15.5515857,6.21407002 16.0123429,7.13019531 16.335,8.098 C16.4549189,8.46596546 16.7979869,8.71498736 17.185,8.71498736 C17.5720131,8.71498736 17.9150811,8.46596546 18.035,8.098 C18.3576442,7.13018993 18.8184022,6.21406283 19.403,5.378 C20.3953599,3.789009 22.0833858,2.76574302 23.9511917,2.62092739 C25.8189977,2.47611176 27.644575,3.22695937 28.87,4.644 C30.0462246,6.02571388 30.6786741,7.78867998 30.649,9.603 C30.647,14.191 26.552,17.681 20.353,22.964 Z" id="Path"></path>
        </g>
    </g>
</svg>