<svg xmlns="http://www.w3.org/2000/svg" width="24.926" height="25.763" viewBox="0 0 24.926 25.763"><defs><style>.a{fill:#fff;}</style></defs><g transform="translate(-176.589 -296.423)"><path class="a" d="M200.957,302.616l-.008-.029a8.593,8.593,0,0,0-5.8-5.582L195.12,297a32.234,32.234,0,0,0-12.136,0l-.029.006a8.6,8.6,0,0,0-5.8,5.582l-.007.029a23.757,23.757,0,0,0,0,10.233l.007.03a8.667,8.667,0,0,0,5.482,5.5v2.714a1.091,1.091,0,0,0,1.878.756l2.749-2.858c.6.033,1.193.052,1.79.052a32.353,32.353,0,0,0,6.068-.576l.028-.006a8.593,8.593,0,0,0,5.8-5.582l.008-.03a23.758,23.758,0,0,0,0-10.233Zm-2.176,9.74a6.5,6.5,0,0,1-4.1,3.922,30.041,30.041,0,0,1-6.455.522.152.152,0,0,0-.114.046l-2.007,2.061-2.135,2.191a.25.25,0,0,1-.43-.173v-4.5a.155.155,0,0,0-.126-.152h0a6.5,6.5,0,0,1-4.095-3.922,21.552,21.552,0,0,1,0-9.248,6.5,6.5,0,0,1,4.095-3.922,30.014,30.014,0,0,1,11.269,0,6.5,6.5,0,0,1,4.1,3.922,21.526,21.526,0,0,1,0,9.248Zm0,0"/><path class="a" d="M244.5,363.295c-.252-.076-.491-.127-.713-.22a16.206,16.206,0,0,1-6.109-4.083,15.865,15.865,0,0,1-2.337-3.576c-.3-.609-.552-1.243-.81-1.872a1.625,1.625,0,0,1,.476-1.6,3.762,3.762,0,0,1,1.258-.945.808.808,0,0,1,1.01.24,13.016,13.016,0,0,1,1.563,2.188,1.041,1.041,0,0,1-.292,1.41c-.118.08-.226.175-.336.265a1.113,1.113,0,0,0-.254.268.732.732,0,0,0-.049.644,5.825,5.825,0,0,0,3.272,3.623,1.668,1.668,0,0,0,.839.2c.513-.06.678-.622,1.038-.916a.978.978,0,0,1,1.178-.051c.378.239.745.5,1.109.756a12.614,12.614,0,0,1,1.044.795.828.828,0,0,1,.248,1.025,3.468,3.468,0,0,1-1.49,1.641,3.591,3.591,0,0,1-.644.2c-.252-.076.219-.067,0,0Zm0,0" transform="translate(-51.886 -48.863)"/><path class="a" d="M292.632,344.056a6.128,6.128,0,0,1,6.024,5.068c.09.508.123,1.028.163,1.543a.362.362,0,0,1-.34.426c-.241,0-.35-.2-.366-.416-.031-.429-.052-.86-.112-1.286a5.389,5.389,0,0,0-4.34-4.5c-.337-.06-.681-.076-1.022-.112-.215-.023-.5-.036-.545-.3a.368.368,0,0,1,.363-.415c.058,0,.117,0,.175,0,3.016.085-.058,0,0,0Zm0,0" transform="translate(-103.574 -42.714)"/><path class="a" d="M302.025,364a1.4,1.4,0,0,1-.029.21.343.343,0,0,1-.645.035.915.915,0,0,1-.036-.292,3.653,3.653,0,0,0-.462-1.833,3.412,3.412,0,0,0-1.431-1.342,4.121,4.121,0,0,0-1.14-.35c-.172-.028-.346-.046-.518-.07a.328.328,0,0,1-.311-.369.324.324,0,0,1,.361-.32,4.737,4.737,0,0,1,1.976.515,4,4,0,0,1,2.175,3.106c.009.063.025.126.029.19.012.157.019.314.031.521,0,.037-.012-.207,0,0Zm0,0" transform="translate(-108.383 -56.715)"/><path class="a" d="M304.129,378.276a.373.373,0,0,1-.413-.367,3.773,3.773,0,0,0-.071-.482,1.357,1.357,0,0,0-.5-.785,1.309,1.309,0,0,0-.407-.2c-.185-.054-.378-.039-.562-.084a.344.344,0,0,1-.28-.4.363.363,0,0,1,.382-.291,2.074,2.074,0,0,1,2.124,2.066.951.951,0,0,1,0,.292.3.3,0,0,1-.27.247c-.252,0,.115-.008,0,0Zm0,0" transform="translate(-112.364 -71.065)"/></g></svg>