<svg xmlns="http://www.w3.org/2000/svg" width="18.447" height="18.294" viewBox="0 0 18.447 18.294"><defs><style>.a{fill:#fff;}</style></defs><path class="a" d="M139.316,138.274l-.887.881a4.668,4.668,0,0,1-4.405,1.26,15.507,15.507,0,0,1-4.5-2.019,21.573,21.573,0,0,1-6.208-6.086,16.335,16.335,0,0,1-2-4.038,4.668,4.668,0,0,1,1.167-4.767l1.039-1.039a.741.741,0,0,1,1.048,0l0,0,3.279,3.279a.741.741,0,0,1,0,1.048l0,0-1.926,1.926a1.57,1.57,0,0,0-.163,2.042A22.984,22.984,0,0,0,131.1,136a1.581,1.581,0,0,0,2.019-.175l1.861-1.891a.741.741,0,0,1,1.048,0l0,0,3.285,3.291a.741.741,0,0,1,0,1.048l0,0Z" transform="translate(-121.087 -122.249)"/></svg>