<svg xmlns="http://www.w3.org/2000/svg" width="32.367" height="28.595" viewBox="0 0 32.367 28.595"><defs><style>.a{fill:#959595;}</style></defs><path class="a" d="M23.77,29.836a8.217,8.217,0,0,0-6.78,3.746,12.41,12.41,0,0,0-.806,1.306,12.4,12.4,0,0,0-.806-1.306,8.152,8.152,0,0,0-13.016-.937A9.811,9.811,0,0,0,0,39.162c0,2.693,1.051,5.2,3.309,7.883a73.67,73.67,0,0,0,8.282,7.738c1.253,1.067,2.548,2.171,3.927,3.378l.041.036a.948.948,0,0,0,1.249,0l.041-.036c1.379-1.207,2.674-2.31,3.927-3.378a73.66,73.66,0,0,0,8.282-7.738c2.258-2.685,3.309-5.19,3.309-7.883a9.811,9.811,0,0,0-2.362-6.517A8.2,8.2,0,0,0,23.77,29.836ZM19.353,52.8c-1.017.867-2.065,1.759-3.169,2.719-1.1-.96-2.151-1.852-3.169-2.719C6.815,47.517,2.72,44.027,2.72,39.439A7.462,7.462,0,0,1,4.5,34.48a5.965,5.965,0,0,1,4.536-2.042,6.025,6.025,0,0,1,4.931,2.776,10.594,10.594,0,0,1,1.368,2.72.894.894,0,0,0,1.7,0,10.593,10.593,0,0,1,1.368-2.72,5.9,5.9,0,0,1,9.467-.734,7.462,7.462,0,0,1,1.779,4.959C29.647,44.027,25.552,47.517,19.353,52.8Z" transform="translate(0 -29.836)"/></svg>