<svg xmlns="http://www.w3.org/2000/svg" width="26.543" height="18.248" viewBox="0 0 26.543 18.248"><defs><style>.a{fill:#fff;}</style></defs><g transform="translate(0 -96)"><path class="a" d="M348.34,160.9v11.553l-8.948-5.657Z" transform="translate(-321.797 -61.532)"/><path class="a" d="M8.948,166.792,0,172.449V160.9Z" transform="translate(0 -61.532)"/><path class="a" d="M27.4,97.412A1.638,1.638,0,0,0,25.794,96H2.569A1.638,1.638,0,0,0,.96,97.412l13.222,8.711Z" transform="translate(-0.91)"/><path class="a" d="M14.7,295.468a.833.833,0,0,1-.912,0l-2.347-1.548L1.024,300.508a1.636,1.636,0,0,0,1.606,1.4H25.855a1.636,1.636,0,0,0,1.606-1.4l-10.415-6.586Z" transform="translate(-0.971 -187.659)"/></g></svg>