<svg xmlns="http://www.w3.org/2000/svg" width="25.21" height="27.053" viewBox="0 0 25.21 27.053"><defs><style>.a{fill:#959595;}</style></defs><path class="a" d="M41.662,300.2H18.427a.987.987,0,0,1-.987-.987c0-6.982,4.477-10.828,12.6-10.828s12.6,3.846,12.6,10.828A.987.987,0,0,1,41.662,300.2Zm-22.212-1.975H40.639c-.389-5.221-3.948-7.866-10.595-7.866S19.839,293.009,19.451,298.229Z" transform="translate(-17.44 -273.151)"/><path class="a" d="M138.6,13.789a6.854,6.854,0,0,1-6.549-7.109,6.55,6.55,0,1,1,13.1,0A6.854,6.854,0,0,1,138.6,13.789Zm0-11.815a4.49,4.49,0,0,0-4.575,4.706,4.605,4.605,0,1,0,9.149,0A4.54,4.54,0,0,0,138.6,1.975Z" transform="translate(-125.993)"/></svg>