<?xml version="1.0" encoding="UTF-8"?>
<svg width="22px" height="22px" viewBox="0 0 22 22" version="1.1" xmlns="http://www.w3.org/2000/svg" xmlns:xlink="http://www.w3.org/1999/xlink">
    <!-- Generator: sketchtool 58 (101010) - https://sketch.com -->
    <title>AE994CDB-7271-4C46-B48C-24B6CA29A210</title>
    <desc>Created with sketchtool.</desc>
    <g id="Page-1" stroke="none" stroke-width="1" fill="none" fill-rule="evenodd">
        <g id="Home-2" transform="translate(-1148.000000, -32.000000)" fill="#FFFFFF" fill-rule="nonzero" stroke="#FFFFFF" stroke-width="0.5">
            <g id="search-btn" transform="translate(1136.000000, 21.000000)">
                <path d="M32.8270126,30.9800443 L27.9656243,26.1197339 C29.2696829,24.6208426 30.0592149,22.6651885 30.0592149,20.5277162 C30.0592149,15.8226164 26.2313151,12 21.5296075,12 C16.8234642,12 13,15.827051 13,20.5277162 C13,25.2283814 16.8278998,29.0554324 21.5296075,29.0554324 C23.6675538,29.0554324 25.6236416,28.2660754 27.1228654,26.962306 L31.9842537,31.8226164 C32.0995786,31.9379157 32.2548237,32 32.4056332,32 C32.5564427,32 32.7116877,31.9423503 32.8270126,31.8226164 C33.0576625,31.5920177 33.0576625,31.210643 32.8270126,30.9800443 Z M14.1931692,20.5277162 C14.1931692,16.4833703 17.4843646,13.1973392 21.5251719,13.1973392 C25.5704147,13.1973392 28.8571745,16.4878049 28.8571745,20.5277162 C28.8571745,24.5676275 25.5704147,27.8625277 21.5251719,27.8625277 C17.4843646,27.8625277 14.1931692,24.5720621 14.1931692,20.5277162 Z" id="search"></path>
            </g>
        </g>
    </g>
</svg>