<svg xmlns="http://www.w3.org/2000/svg" width="112" height="66.281" viewBox="0 0 112 66.281"><defs><style>.a{fill:#a7a7a7;fill-rule:evenodd;}</style></defs><path class="a" d="M120.844,270.55c9.711,2.253,13.425,7.931,18.082,15.746H120.844ZM64.1,286.953c1.9,0,3.281.918,3.281,3.063A3.281,3.281,0,0,1,64.1,293.3H44.281a3.281,3.281,0,0,0,0,6.563H73.813a3.281,3.281,0,1,1,.013,6.563H44.281a3.281,3.281,0,0,0,0,6.563H51.5v9.844a3.281,3.281,0,0,0,3.281,3.281h6.6a12.581,12.581,0,0,0,24.652,0h33.316a12.581,12.581,0,0,0,24.652,0h5.721A3.281,3.281,0,0,0,153,322.828V303.14c0-9.628-10.155-10.267-10.164-10.281H117.563a3.281,3.281,0,0,1-3.281-3.281V269.89h-59.5a3.281,3.281,0,0,0-3.281,3.281v7.219H47.563a3.281,3.281,0,0,0,0,6.563Zm71.83,32.387a6.016,6.016,0,1,1-10.269,4.254,6.017,6.017,0,0,1,10.269-4.254Zm-57.969,0a6.016,6.016,0,1,1-10.269,4.254,6.017,6.017,0,0,1,10.269-4.254Zm0,0" transform="translate(-41 -269.89)"/></svg>