<svg xmlns="http://www.w3.org/2000/svg" width="80.684" height="81" viewBox="0 0 80.684 81"><defs><style>.a{fill:#a7a7a7;}</style></defs><path class="a" d="M106,290.482v13.289a7.127,7.127,0,0,0,7.119,7.119h66.445a7.127,7.127,0,0,0,7.119-7.119V290.482Zm42.873,10.125h-5.062a2.373,2.373,0,1,1,0-4.746h5.062a2.373,2.373,0,1,1,0,4.746Zm0,0-4.9-30.375H108.395A2.382,2.382,0,0,0,106,272.58v13.156h37.969Zm-14.08,10.125h-5.062a2.373,2.373,0,0,1,0-4.746h5.062a2.373,2.373,0,1,1,0,4.746Zm0,0,54.4-10.125H148.715v15.5h37.969V272.6a2.381,2.381,0,0,0-2.395-2.373Zm-16.432,10.125h-5.062a2.373,2.373,0,0,1,0-4.746h5.063a2.373,2.373,0,0,1,0,4.746Zm0,0M123.733,259.81a26.043,26.043,0,0,0,5.989,5.675h33.239a26.025,26.025,0,0,0,5.989-5.675,27.946,27.946,0,0,0,5.031-10.47,2.374,2.374,0,0,0-2.327-2.839H148.715v-9.176a2.689,2.689,0,0,1,5.379,0,2.373,2.373,0,1,0,4.746,0,7.436,7.436,0,1,0-14.871,0V246.5H138.59v-2.689a2.373,2.373,0,0,0-4.746,0V246.5H121.029a2.374,2.374,0,0,0-2.327,2.839,27.946,27.946,0,0,0,5.031,10.47Zm0,0" transform="translate(-106 -229.89)"/></svg>