<svg xmlns="http://www.w3.org/2000/svg" width="88.38" height="87.813" viewBox="0 0 88.38 87.813"><defs><style>.a{fill:#a7a7a7;}</style></defs><path class="a" d="M2.487,22.551a6.137,6.137,0,0,1,.775-.484L19.206,13.6,60.331,35.366,43.258,43.811Zm65.488,14.81V48.726a2.588,2.588,0,1,1-5.177,0V39.921l-16.983,8.4V89.455c.053-.025.107-.047.16-.074L85.018,69.6a6.049,6.049,0,0,0,3.362-5.441V27.5c0-.077-.005-.152-.008-.229Zm-1.924-4.824L86,22.672a6.158,6.158,0,0,0-.978-.612L45.991,2.285l-.016-.008a6.1,6.1,0,0,0-5.524.052L24.732,10.672ZM40.638,48.283.012,27.1c-.007.119-.012.238-.012.357V64.2a6.065,6.065,0,0,0,3.262,5.389L40.434,89.321l.017.009c.062.032.125.061.188.091V48.283Z" transform="translate(0 -1.642)"/></svg>