<svg xmlns="http://www.w3.org/2000/svg" width="22.669" height="26.867" viewBox="0 0 22.669 26.867"><defs><style>.a{fill:#fff;}</style></defs><path class="a" d="M157.669,253.608a1.049,1.049,0,0,1-1.049,1.049H155.57v1.049a1.049,1.049,0,0,1-2.1,0v-1.049h-1.049a1.049,1.049,0,1,1,0-2.1h1.049v-1.049a1.049,1.049,0,0,1,2.1,0v1.049h1.049a1.049,1.049,0,0,1,1.049,1.049Zm0-16.372v10.075a1.049,1.049,0,1,1-2.1,0v-9.026h-2.1v3.148a1.049,1.049,0,1,1-2.1,0v-3.148H141.3v3.148a1.049,1.049,0,1,1-2.1,0v-3.148h-2.1v16.372h11.125a1.049,1.049,0,1,1,0,2.1H136.049A1.049,1.049,0,0,1,135,255.707V237.236a1.049,1.049,0,0,1,1.049-1.049h3.2a7.136,7.136,0,0,1,14.173,0h3.2a1.049,1.049,0,0,1,1.049,1.049Zm-6.367-1.049a5.038,5.038,0,0,0-9.935,0Zm0,0" transform="translate(-135 -229.89)"/></svg>